<svg xmlns="http://www.w3.org/2000/svg" version="1.1" xmlns:xlink="http://www.w3.org/1999/xlink" width="1000" height="1000"><metadata><rdf:RDF xmlns:rdf="http://www.w3.org/1999/02/22-rdf-syntax-ns#" xmlns:dc="http://purl.org/dc/elements/1.1/"><rdf:Description><dc:creator>RealFaviconGenerator</dc:creator><dc:source>https://realfavicongenerator.net</dc:source></rdf:Description></rdf:RDF></metadata><style>
    #light-icon {
      display: inline;
    }
    #dark-icon {
      display: none;
    }

    @media (prefers-color-scheme: dark) {
      #light-icon {
        display: none;
      }
      #dark-icon {
        display: inline;
      }
    }
  </style><g id="light-icon"><svg xmlns="http://www.w3.org/2000/svg" version="1.1" xmlns:xlink="http://www.w3.org/1999/xlink" width="1000" height="1000"><g><g transform="matrix(31.25,0,0,31.25,0,0)"><svg xmlns="http://www.w3.org/2000/svg" width="32" height="32" viewBox="0 0 32 32" fill="none"><g clip-path="url(#clip0_2028_17)">
<path d="M16.9484 16.3677L17.4903 14.4065C17.8172 13.2194 17.8516 12.3333 17.5935 11.7484C17.3355 11.1634 16.7849 10.871 15.9419 10.871C15.2022 10.871 14.5226 11.1118 13.9032 11.5935C13.2839 12.0753 12.7075 12.8323 12.1742 13.8645L12.0452 13.271C12.6817 11.929 13.4473 10.9398 14.3419 10.3032C15.2366 9.64946 16.2516 9.32258 17.3871 9.32258C18.8323 9.32258 19.8387 9.8043 20.4065 10.7677C20.9914 11.714 21.0516 13.0129 20.5871 14.6645L20.0968 16.3677H16.9484ZM8.81935 16.3677L9.72258 13.1677C9.91183 12.4452 9.93763 11.886 9.8 11.4903C9.67957 11.0774 9.37849 10.871 8.89677 10.871C8.51828 10.871 8.16559 11.0172 7.83871 11.3097C7.51183 11.5849 7.19355 12.0065 6.88387 12.5742L6.39355 13.529H5.3871L5.98065 12.3677C6.32473 11.7312 6.69462 11.1892 7.09032 10.7419C7.48602 10.2946 7.93333 9.95054 8.43226 9.70968C8.93118 9.45161 9.49032 9.32258 10.1097 9.32258C10.9183 9.32258 11.5548 9.51183 12.0194 9.89032C12.4839 10.2516 12.7677 10.7677 12.871 11.4387C12.9914 12.1097 12.9226 12.9011 12.6645 13.8129L11.9677 16.3677H8.81935ZM6.93548 23L8.81935 16.3677H11.9677L10.1097 23H6.93548ZM19.1935 19.5677C19.0043 20.2559 18.9699 20.8065 19.0903 21.2194C19.228 21.6323 19.5376 21.8387 20.0194 21.8387C20.3978 21.8387 20.7505 21.7011 21.0774 21.4258C21.4043 21.1333 21.714 20.7118 22.0065 20.1613L22.5226 19.2065H23.529L22.9097 20.3677C22.5828 20.9871 22.2129 21.529 21.8 21.9935C21.4043 22.4409 20.957 22.7849 20.4581 23.0258C19.9763 23.2667 19.4258 23.3871 18.8065 23.3871C17.9978 23.3871 17.3527 23.2065 16.871 22.8452C16.4065 22.4667 16.1226 21.9419 16.0194 21.271C15.9161 20.5828 15.9849 19.7914 16.2258 18.8968L16.9484 16.3677H20.0968L19.1935 19.5677ZM26.2772 23.3161C25.7503 23.3161 25.3138 23.1581 24.9675 22.8419C24.6364 22.5258 24.4708 22.1344 24.4708 21.6677C24.4708 21.1258 24.6665 20.6742 25.0579 20.3129C25.4493 19.9366 25.9385 19.7484 26.5256 19.7484C27.0675 19.7484 27.5041 19.9065 27.8353 20.2226C28.1815 20.5387 28.3546 20.9376 28.3546 21.4194C28.3546 21.9462 28.1514 22.3978 27.745 22.7742C27.3536 23.1355 26.8643 23.3161 26.2772 23.3161Z" fill="#161616"></path>
</g><defs>
<clipPath id="clip0_2028_17">
<rect width="32" height="32" rx="8" fill="white"></rect>
</clipPath>
</defs></svg></g></g></svg></g><g id="dark-icon"><svg xmlns="http://www.w3.org/2000/svg" version="1.1" xmlns:xlink="http://www.w3.org/1999/xlink" width="1000" height="1000"><g><g transform="matrix(31.25,0,0,31.25,0,0)"><svg xmlns="http://www.w3.org/2000/svg" width="32" height="32" viewBox="0 0 32 32" fill="none"><g clip-path="url(#clip0_2028_20)">
<path d="M16.9484 16.3677L17.4903 14.4065C17.8172 13.2194 17.8516 12.3333 17.5935 11.7484C17.3355 11.1634 16.7849 10.871 15.9419 10.871C15.2022 10.871 14.5226 11.1118 13.9032 11.5935C13.2839 12.0753 12.7075 12.8323 12.1742 13.8645L12.0452 13.271C12.6817 11.929 13.4473 10.9398 14.3419 10.3032C15.2366 9.64946 16.2516 9.32258 17.3871 9.32258C18.8323 9.32258 19.8387 9.8043 20.4065 10.7677C20.9914 11.714 21.0516 13.0129 20.5871 14.6645L20.0968 16.3677H16.9484ZM8.81935 16.3677L9.72258 13.1677C9.91183 12.4452 9.93763 11.886 9.8 11.4903C9.67957 11.0774 9.37849 10.871 8.89677 10.871C8.51828 10.871 8.16559 11.0172 7.83871 11.3097C7.51183 11.5849 7.19355 12.0065 6.88387 12.5742L6.39355 13.529H5.3871L5.98065 12.3677C6.32473 11.7312 6.69462 11.1892 7.09032 10.7419C7.48602 10.2946 7.93333 9.95054 8.43226 9.70968C8.93118 9.45161 9.49032 9.32258 10.1097 9.32258C10.9183 9.32258 11.5548 9.51183 12.0194 9.89032C12.4839 10.2516 12.7677 10.7677 12.871 11.4387C12.9914 12.1097 12.9226 12.9011 12.6645 13.8129L11.9677 16.3677H8.81935ZM6.93548 23L8.81935 16.3677H11.9677L10.1097 23H6.93548ZM19.1935 19.5677C19.0043 20.2559 18.9699 20.8065 19.0903 21.2194C19.228 21.6323 19.5376 21.8387 20.0194 21.8387C20.3978 21.8387 20.7505 21.7011 21.0774 21.4258C21.4043 21.1333 21.714 20.7118 22.0065 20.1613L22.5226 19.2065H23.529L22.9097 20.3677C22.5828 20.9871 22.2129 21.529 21.8 21.9935C21.4043 22.4409 20.957 22.7849 20.4581 23.0258C19.9763 23.2667 19.4258 23.3871 18.8065 23.3871C17.9978 23.3871 17.3527 23.2065 16.871 22.8452C16.4065 22.4667 16.1226 21.9419 16.0194 21.271C15.9161 20.5828 15.9849 19.7914 16.2258 18.8968L16.9484 16.3677H20.0968L19.1935 19.5677ZM26.2772 23.3161C25.7503 23.3161 25.3138 23.1581 24.9675 22.8419C24.6364 22.5258 24.4708 22.1344 24.4708 21.6677C24.4708 21.1258 24.6665 20.6742 25.0579 20.3129C25.4493 19.9366 25.9385 19.7484 26.5256 19.7484C27.0675 19.7484 27.5041 19.9065 27.8353 20.2226C28.1815 20.5387 28.3546 20.9376 28.3546 21.4194C28.3546 21.9462 28.1514 22.3978 27.745 22.7742C27.3536 23.1355 26.8643 23.3161 26.2772 23.3161Z" fill="#F8F8F8"></path>
</g><defs>
<clipPath id="clip0_2028_20">
<rect width="32" height="32" rx="8" fill="white"></rect>
</clipPath>
</defs></svg></g></g></svg></g></svg>